<svg width="383" height="275" viewBox="0 0 383 275" fill="none" xmlns="http://www.w3.org/2000/svg">
<g opacity="0.4" filter="url(#filter0_f_4330_247)">
<rect width="320.869" height="213.555" rx="13.3148" transform="matrix(1 0 0 -1 30.1338 244.26)" fill="url(#paint0_linear_4330_247)"/>
</g>
<g clip-path="url(#clip0_4330_247)">
<rect x="40.8652" y="7.09583" width="341.746" height="218.493" rx="6.72287" fill="url(#paint1_linear_4330_247)"/>
<path opacity="0.4" d="M109.489 109.62C84.3086 109.516 60.1137 119.401 42.2089 137.109C24.3042 154.817 14.1508 178.904 13.9737 204.088C13.9556 216.511 16.418 228.812 21.2168 240.27C26.0156 251.728 33.0539 262.113 41.919 270.814C45.6735 274.503 50.7266 276.571 55.9902 276.571C61.2538 276.571 66.3069 274.503 70.0614 270.814C71.9089 268.995 73.3761 266.827 74.3776 264.436C75.3791 262.045 75.8946 259.479 75.8946 256.886C75.8946 254.294 75.3791 251.728 74.3776 249.336C73.3761 246.945 71.9089 244.778 70.0614 242.959C64.8956 237.877 60.7928 231.818 57.9923 225.134C55.1918 218.45 53.7496 211.276 53.7496 204.029C53.7496 196.782 55.1918 189.607 57.9923 182.924C60.7928 176.24 64.8956 170.18 70.0614 165.099C80.5619 154.766 94.7022 148.975 109.433 148.975C124.163 148.975 138.303 154.766 148.804 165.099C153.97 170.18 158.072 176.24 160.873 182.924C163.673 189.607 165.116 196.782 165.116 204.029C165.116 211.276 163.673 218.45 160.873 225.134C158.072 231.818 153.97 237.877 148.804 242.959C146.957 244.777 145.489 246.944 144.488 249.335C143.486 251.726 142.971 254.292 142.971 256.884C142.971 259.476 143.486 262.042 144.488 264.432C145.489 266.823 146.957 268.99 148.804 270.808C152.558 274.498 157.611 276.565 162.875 276.565C168.139 276.565 173.192 274.498 176.946 270.808C185.833 262.118 192.894 251.739 197.714 240.282C202.535 228.824 205.016 216.519 205.015 204.088C204.838 178.902 194.683 154.814 176.776 137.105C158.869 119.396 134.671 109.513 109.489 109.62Z" fill="url(#paint2_linear_4330_247)"/>
<path d="M357.384 -52.9581C335.886 -53.0564 315.226 -44.6328 299.937 -29.5352C284.648 -14.4376 275.979 6.10112 275.831 27.5753C275.831 49.1804 284.423 69.9006 299.717 85.1777C315.011 100.455 335.755 109.037 357.384 109.037C379.013 109.037 399.756 100.455 415.051 85.1777C430.345 69.9006 438.937 49.1804 438.937 27.5753C438.789 6.10112 430.12 -14.4376 414.831 -29.5352C399.542 -44.6328 378.882 -53.0564 357.384 -52.9581ZM357.384 70.1094C348.982 70.0141 340.796 67.4382 333.857 62.7061C326.917 57.9739 321.534 51.297 318.385 43.5157C315.236 35.7344 314.461 27.1964 316.159 18.9765C317.857 10.7566 321.952 3.22209 327.927 -2.6787C333.902 -8.57948 341.491 -12.5828 349.739 -14.1848C357.987 -15.7868 366.525 -14.9158 374.279 -11.6816C382.032 -8.44732 388.655 -2.99429 393.312 3.99116C397.97 10.9766 400.455 19.1823 400.455 27.5753C400.423 33.1931 399.283 38.7496 397.101 43.9274C394.919 49.1053 391.738 53.8032 387.738 57.7529C383.739 61.7026 379 64.8267 373.792 66.9468C368.583 69.0669 363.008 70.1416 357.384 70.1094Z" fill="url(#paint3_linear_4330_247)"/>
<g opacity="0.6">
<path d="M133.875 118.805C135.02 117.66 135.664 116.107 135.664 114.487C135.664 112.868 135.02 111.315 133.875 110.169" stroke="white" stroke-width="2.8012" stroke-linecap="round" stroke-linejoin="round"/>
<path d="M138.574 121.671C140.201 119.63 141.086 117.096 141.086 114.486C141.085 111.876 140.199 109.343 138.572 107.301" stroke="white" stroke-width="2.8012" stroke-linecap="round" stroke-linejoin="round"/>
<path d="M142.716 124.497C144.895 121.632 146.08 118.135 146.091 114.535C146.101 110.936 144.937 107.432 142.774 104.555" stroke="white" stroke-width="2.8012" stroke-linecap="round" stroke-linejoin="round"/>
<path d="M147.342 101.613C150.138 105.477 151.601 110.146 151.508 114.914C151.416 119.683 149.773 124.291 146.828 128.043" stroke="white" stroke-width="2.8012" stroke-linecap="round" stroke-linejoin="round"/>
</g>
<rect x="77.5607" y="96.482" width="47.4803" height="34.4469" rx="7.00299" fill="url(#paint4_linear_4330_247)" stroke="url(#paint5_linear_4330_247)" stroke-width="0.560239"/>
<mask id="mask0_4330_247" style="mask-type:alpha" maskUnits="userSpaceOnUse" x="77" y="96" width="48" height="35">
<rect x="78.1209" y="97.0423" width="46.3598" height="33.3264" rx="6.44275" fill="#DCD59E" stroke="black" stroke-width="0.560239"/>
</mask>
<g mask="url(#mask0_4330_247)">
<path opacity="0.5" fill-rule="evenodd" clip-rule="evenodd" d="M102.406 97.8722C101.996 97.0367 100.805 97.0367 100.394 97.8722L96.1782 106.459C96.1782 106.459 98.267 112.767 96.1782 119.962L100.375 129.473C100.768 130.363 102.032 130.363 102.425 129.473L106.622 119.962C106.622 119.962 104.533 116.052 106.622 106.459L102.406 97.8722Z" stroke="#BFB985" stroke-width="0.728311" stroke-linejoin="bevel"/>
<path opacity="0.5" d="M77.3794 106.413H96.0458" stroke="#BFB985" stroke-width="0.728311" stroke-linejoin="bevel"/>
<path opacity="0.5" d="M106.179 106.413H125.378" stroke="#BFB985" stroke-width="0.728311" stroke-linejoin="bevel"/>
<path opacity="0.5" d="M77.3794 119.858H96.0458" stroke="#BFB985" stroke-width="0.728311" stroke-linejoin="bevel"/>
<path opacity="0.5" d="M106.179 119.858H125.378" stroke="#BFB985" stroke-width="0.728311" stroke-linejoin="bevel"/>
</g>
<path fill-rule="evenodd" clip-rule="evenodd" d="M109.613 33.4429C109.871 33.1773 110.074 32.8629 110.21 32.518C110.346 32.1732 110.411 31.8047 110.403 31.4342C110.395 31.0637 110.313 30.6985 110.163 30.3599C110.012 30.0213 109.796 29.7161 109.526 29.462C107.819 27.8443 105.678 26.759 103.365 26.3387C101.051 25.9185 98.665 26.1816 96.4986 27.0959C94.3321 28.0101 92.479 29.5359 91.1659 31.4866C89.8528 33.4373 89.1366 35.7284 89.1049 38.0797C89.1366 40.4309 89.8528 42.722 91.1659 44.6727C92.479 46.6234 94.3321 48.1492 96.4986 49.0635C98.665 49.9777 101.051 50.2408 103.365 49.8206C105.678 49.4004 107.819 48.315 109.526 46.6973C109.796 46.4432 110.012 46.138 110.163 45.7994C110.313 45.4608 110.395 45.0956 110.403 44.7251C110.411 44.3546 110.346 43.9862 110.21 43.6413C110.074 43.2965 109.871 42.9821 109.613 42.7165C109.087 42.1774 108.371 41.8664 107.618 41.8504C106.865 41.8345 106.136 42.1149 105.588 42.6312C104.373 43.7783 102.758 44.4069 101.087 44.3836C99.4157 44.3603 97.8192 43.687 96.636 42.5064C96.0538 41.9256 95.5919 41.2356 95.2767 40.476C94.9616 39.7164 94.7993 38.9021 94.7993 38.0797C94.7993 37.2573 94.9616 36.443 95.2767 35.6834C95.5919 34.9237 96.0538 34.2338 96.636 33.6529C97.8192 32.4724 99.4157 31.7991 101.087 31.7758C102.758 31.7525 104.373 32.3811 105.588 33.5282C106.136 34.0446 106.865 34.325 107.618 34.3088C108.371 34.2927 109.087 33.9814 109.613 33.4421V33.4429ZM62.8309 30.0757C65.3914 27.5439 68.8514 26.1306 72.4523 26.1458C76.0532 26.1306 79.5131 27.5439 82.0736 30.0757C84.6342 32.6076 86.0863 36.0514 86.1116 39.6522C86.1117 41.4293 85.7566 43.1885 85.0673 44.8265C84.3781 46.4645 83.3684 47.9483 82.0977 49.1906C81.5609 49.7182 80.8383 50.0137 80.0856 50.0137C79.3329 50.0137 78.6103 49.7182 78.0734 49.1906C77.8092 48.9306 77.5994 48.6207 77.4562 48.2788C77.313 47.937 77.2393 47.57 77.2393 47.1994C77.2393 46.8287 77.313 46.4618 77.4562 46.1199C77.5994 45.7781 77.8092 45.4681 78.0734 45.2082C78.8123 44.4816 79.399 43.6152 79.7996 42.6595C80.2001 41.7038 80.4064 40.678 80.4064 39.6418C80.4064 38.6055 80.2001 37.5797 79.7996 36.624C79.399 35.6683 78.8123 34.8019 78.0734 34.0753C76.5717 32.598 74.5496 31.7701 72.443 31.7701C70.3365 31.7701 68.3143 32.598 66.8126 34.0753C66.0738 34.8019 65.487 35.6683 65.0865 36.624C64.6859 37.5797 64.4796 38.6055 64.4796 39.6418C64.4796 40.678 64.6859 41.7038 65.0865 42.6595C65.487 43.6152 66.0738 44.4816 66.8126 45.2082C67.0768 45.4681 67.2866 45.7781 67.4298 46.1199C67.573 46.4618 67.6468 46.8287 67.6468 47.1994C67.6468 47.57 67.573 47.937 67.4298 48.2788C67.2866 48.6207 67.0768 48.9306 66.8126 49.1906C66.2757 49.7182 65.5532 50.0137 64.8005 50.0137C64.0478 50.0137 63.3252 49.7182 62.7883 49.1906C61.521 47.9467 60.5147 46.4623 59.8287 44.8244C59.1426 43.1864 58.7905 41.428 58.793 39.6522C58.8183 36.0514 60.2704 32.6076 62.8309 30.0757ZM124.801 26.146C121.618 26.1315 118.56 27.3799 116.297 29.6174C114.033 31.8549 112.75 34.8988 112.728 38.0813C112.728 41.2832 114 44.354 116.264 46.6181C118.528 48.8823 121.599 50.1542 124.801 50.1542C128.003 50.1542 131.074 48.8823 133.338 46.6181C135.602 44.354 136.874 41.2832 136.874 38.0813C136.852 34.8988 135.569 31.8549 133.305 29.6174C131.042 27.3799 127.983 26.1315 124.801 26.146ZM124.801 44.385C123.557 44.3708 122.345 43.9891 121.318 43.2878C120.291 42.5865 119.494 41.5969 119.028 40.4437C118.561 39.2905 118.447 38.0252 118.698 36.8069C118.949 35.5887 119.556 34.4721 120.44 33.5976C121.325 32.7231 122.448 32.1298 123.669 31.8923C124.89 31.6549 126.154 31.784 127.302 32.2633C128.45 32.7426 129.43 33.5508 130.12 34.5861C130.809 35.6213 131.177 36.8374 131.177 38.0813C131.172 38.9139 131.004 39.7374 130.681 40.5047C130.358 41.2721 129.887 41.9684 129.295 42.5537C128.702 43.1391 128.001 43.6021 127.23 43.9163C126.459 44.2305 125.633 44.3897 124.801 44.385ZM153.405 26.146C149.804 26.131 146.344 27.5443 143.784 30.0762C141.223 32.608 139.772 36.0517 139.746 39.6524C139.744 41.4285 140.096 43.1873 140.782 44.8255C141.468 46.4637 142.475 47.9484 143.742 49.1924C144.279 49.7199 145.002 50.0155 145.754 50.0155C146.507 50.0155 147.23 49.7199 147.767 49.1924C148.031 48.9324 148.241 48.6225 148.384 48.2806C148.527 47.9388 148.601 47.5718 148.601 47.2012C148.601 46.8305 148.527 46.4636 148.384 46.1217C148.241 45.7799 148.031 45.4699 147.767 45.21C147.028 44.4834 146.441 43.6171 146.041 42.6614C145.64 41.7058 145.434 40.6801 145.434 39.6439C145.434 38.6078 145.64 37.582 146.041 36.6264C146.441 35.6708 147.028 34.8045 147.767 34.0779C149.268 32.6006 151.29 31.7727 153.397 31.7727C155.503 31.7727 157.525 32.6006 159.027 34.0779C159.765 34.8045 160.352 35.6708 160.752 36.6264C161.153 37.582 161.359 38.6078 161.359 39.6439C161.359 40.6801 161.153 41.7058 160.752 42.6614C160.352 43.6171 159.765 44.4834 159.027 45.21C158.762 45.4699 158.553 45.7797 158.409 46.1215C158.266 46.4633 158.192 46.8302 158.192 47.2008C158.192 47.5714 158.266 47.9382 158.409 48.28C158.553 48.6218 158.762 48.9317 159.027 49.1916C159.564 49.7191 160.286 50.0147 161.039 50.0147C161.791 50.0147 162.514 49.7191 163.051 49.1916C164.322 47.9492 165.331 46.4653 166.021 44.8271C166.71 43.189 167.065 41.4296 167.065 39.6524C167.039 36.0514 165.587 32.6075 163.027 30.0756C160.466 27.5437 157.006 26.1306 153.405 26.146ZM104.023 38.065C104.031 39.619 102.764 40.8858 101.192 40.8945C99.6206 40.9032 98.3394 39.6505 98.3308 38.0965C98.3222 36.5425 99.5894 35.2757 101.161 35.267C102.733 35.2583 104.014 36.511 104.023 38.065Z" fill="white"/>
<path d="M182.926 35.9264H177.344V49.6234H179.785V44.7132H182.926C185.967 44.7132 187.267 42.5463 187.267 40.3198C187.267 38.133 185.967 35.9264 182.926 35.9264ZM182.806 42.5264H179.785V38.0933H182.866C184.266 38.0933 184.827 39.2463 184.827 40.3198C184.827 41.433 184.246 42.5264 182.806 42.5264Z" fill="white"/>
<path d="M197.946 44.8921C197.946 41.9897 195.845 40.1409 193.164 40.1409C190.503 40.1409 188.263 42.0095 188.263 44.9716C188.263 47.874 190.383 49.8222 193.184 49.8222C194.885 49.8222 196.525 49.1066 197.386 47.7548L195.845 46.5819C195.285 47.3373 194.325 47.7349 193.304 47.7349C191.924 47.7349 190.924 47.0788 190.664 45.7867H197.886C197.926 45.4487 197.946 45.1505 197.946 44.8921ZM190.664 44.1764C190.944 42.765 191.944 42.1686 193.204 42.1686C194.505 42.1686 195.485 42.9041 195.625 44.1764H190.664Z" fill="white"/>
<path d="M201.378 38.471C202.218 38.471 202.898 37.8547 202.898 37.0595C202.898 36.2445 202.218 35.6481 201.378 35.6481C200.558 35.6481 199.877 36.2445 199.877 37.0595C199.877 37.8547 200.558 38.471 201.378 38.471ZM197.537 54.156H198.757C201.378 54.156 202.538 52.5457 202.538 49.9614V40.3397L200.218 40.3397V49.9614C200.238 51.015 199.897 52.009 198.677 52.009H197.537V54.156Z" fill="white"/>
<path d="M209.675 49.8222C212.336 49.8222 214.657 47.8939 214.657 44.9517C214.657 42.0095 212.336 40.1409 209.675 40.1409C207.014 40.1409 204.713 42.0095 204.713 44.9517C204.713 47.8939 207.014 49.8222 209.675 49.8222ZM209.675 47.6752C208.235 47.6752 207.054 46.5819 207.054 44.9517C207.054 43.3614 208.235 42.2879 209.675 42.2879C211.115 42.2879 212.316 43.3614 212.316 44.9517C212.316 46.5819 211.115 47.6752 209.675 47.6752Z" fill="white"/>
<path d="M221.806 40.3397H219.825V36.9204H217.505V40.3397H215.824V42.1885H217.505V49.6234H219.825V42.1885H221.806V40.3397Z" fill="white"/>
<path d="M230.547 40.3397V41.5722C229.907 40.5981 228.607 40.1409 227.426 40.1409C224.965 40.1409 222.845 41.9897 222.845 44.9716C222.845 47.9337 224.985 49.8222 227.446 49.8222C228.587 49.8222 229.907 49.365 230.547 48.371V49.6234H232.868V40.3397H230.547ZM227.806 47.6554C226.366 47.6554 225.185 46.5023 225.185 44.9517C225.185 43.4011 226.366 42.2879 227.806 42.2879C229.147 42.2879 230.507 43.3216 230.507 44.9517C230.507 46.5819 229.227 47.6554 227.806 47.6554Z" fill="white"/>
<path d="M346.886 189.439C345.324 188.882 343.673 188.602 342.01 188.614C336.632 188.614 332.834 191.265 332.807 195.072C332.774 197.869 335.506 199.445 337.573 200.379C339.694 201.34 340.403 201.945 340.396 202.804C340.383 204.11 338.703 204.702 337.14 204.702C334.992 204.702 333.819 204.409 332.014 203.676L331.345 203.37L330.583 207.752C331.89 208.285 334.246 208.742 336.679 208.782C342.396 208.782 346.134 206.146 346.177 202.096C346.224 199.862 344.746 198.175 341.633 196.78C339.741 195.875 338.568 195.269 338.568 194.351C338.568 193.539 339.573 192.67 341.674 192.67C343.072 192.637 344.461 192.894 345.75 193.424L346.255 193.644L347.018 189.41L346.886 189.439ZM360.841 188.969H356.64C355.332 188.969 354.348 189.321 353.776 190.591L345.697 208.509H351.414L352.556 205.571L359.534 205.577C359.698 206.265 360.202 208.509 360.202 208.509H365.244L360.841 188.969ZM325.074 188.804H330.522L327.114 208.354H321.673L325.074 188.798V188.804ZM311.244 199.579L311.808 202.294L317.132 188.969H322.903L314.329 208.482H308.572L303.867 191.96C303.79 191.687 303.611 191.453 303.366 191.305C301.67 190.447 299.873 189.796 298.015 189.367L298.089 188.956H306.858C308.048 189.002 309.005 189.367 309.325 190.611L311.24 199.589V199.579H311.244ZM354.119 201.573L356.29 196.105C356.263 196.164 356.737 194.977 357.013 194.243L357.386 195.931L358.646 201.57H354.116V201.573H354.119Z" fill="white"/>
<path d="M62.8536 198.75C63.8486 198.75 64.7181 198.943 65.4621 199.329C66.215 199.705 66.7932 200.252 67.1966 200.969C67.6089 201.677 67.8151 202.506 67.8151 203.456C67.8151 204.407 67.6089 205.231 67.1966 205.93C66.7932 206.63 66.215 207.167 65.4621 207.544C64.7181 207.911 63.8486 208.095 62.8536 208.095H59.8014V198.75H62.8536ZM62.8536 206.845C63.9472 206.845 64.7853 206.549 65.3679 205.957C65.9506 205.366 66.2419 204.532 66.2419 203.456C66.2419 202.372 65.9506 201.525 65.3679 200.915C64.7853 200.306 63.9472 200.001 62.8536 200.001H61.3342V206.845H62.8536ZM74.968 206.186H71.0553L70.383 208.095H68.7829L72.1309 198.737H73.9058L77.2538 208.095H75.6403L74.968 206.186ZM74.5377 204.935L73.0184 200.592L71.4855 204.935H74.5377ZM86.387 208.095H84.8542L80.2423 201.117V208.095H78.7095V198.737H80.2423L84.8542 205.702V198.737H86.387V208.095ZM89.9327 198.75V208.095H88.3999V198.75H89.9327ZM93.4779 199.987V202.73H96.7049V203.981H93.4779V206.845H97.1083V208.095H91.9451V198.737H97.1083V199.987H93.4779ZM100.529 206.858H103.689V208.095H98.9963V198.75H100.529V206.858ZM107.952 203.403C107.952 202.488 108.163 201.668 108.584 200.942C109.015 200.216 109.593 199.651 110.319 199.248C111.054 198.836 111.856 198.629 112.726 198.629C113.721 198.629 114.604 198.876 115.375 199.369C116.154 199.853 116.719 200.543 117.069 201.44H115.227C114.985 200.947 114.648 200.579 114.218 200.337C113.788 200.095 113.29 199.974 112.726 199.974C112.107 199.974 111.556 200.113 111.072 200.391C110.588 200.669 110.207 201.068 109.929 201.587C109.66 202.107 109.526 202.712 109.526 203.403C109.526 204.093 109.66 204.698 109.929 205.218C110.207 205.738 110.588 206.141 111.072 206.428C111.556 206.706 112.107 206.845 112.726 206.845C113.29 206.845 113.788 206.724 114.218 206.482C114.648 206.24 114.985 205.872 115.227 205.379H117.069C116.719 206.276 116.154 206.966 115.375 207.45C114.604 207.934 113.721 208.176 112.726 208.176C111.847 208.176 111.045 207.974 110.319 207.571C109.593 207.158 109.015 206.589 108.584 205.863C108.163 205.137 107.952 204.317 107.952 203.403ZM123.717 208.095L121.565 204.357H120.396V208.095H118.863V198.75H122.09C122.807 198.75 123.412 198.876 123.905 199.127C124.407 199.378 124.779 199.714 125.021 200.135C125.272 200.557 125.397 201.027 125.397 201.547C125.397 202.157 125.218 202.712 124.86 203.214C124.51 203.707 123.968 204.044 123.233 204.223L125.545 208.095H123.717ZM120.396 203.134H122.09C122.664 203.134 123.094 202.99 123.381 202.703C123.676 202.417 123.824 202.031 123.824 201.547C123.824 201.063 123.681 200.687 123.394 200.418C123.107 200.14 122.672 200.001 122.09 200.001H120.396V203.134ZM128.878 198.75V204.707C128.878 205.415 129.061 205.948 129.429 206.307C129.805 206.665 130.325 206.845 130.989 206.845C131.661 206.845 132.181 206.665 132.548 206.307C132.925 205.948 133.113 205.415 133.113 204.707V198.75H134.646V204.68C134.646 205.442 134.48 206.087 134.148 206.616C133.817 207.145 133.373 207.539 132.817 207.799C132.262 208.059 131.648 208.189 130.975 208.189C130.303 208.189 129.689 208.059 129.133 207.799C128.586 207.539 128.152 207.145 127.829 206.616C127.506 206.087 127.345 205.442 127.345 204.68V198.75H128.878ZM138.121 206.764H142.464V208.095H136.306V206.899L140.635 200.082H136.306V198.75H142.464V199.947L138.121 206.764Z" fill="white"/>
</g>
<defs>
<filter id="filter0_f_4330_247" x="0.133789" y="0.704895" width="380.869" height="273.555" filterUnits="userSpaceOnUse" color-interpolation-filters="sRGB">
<feFlood flood-opacity="0" result="BackgroundImageFix"/>
<feBlend mode="normal" in="SourceGraphic" in2="BackgroundImageFix" result="shape"/>
<feGaussianBlur stdDeviation="15" result="effect1_foregroundBlur_4330_247"/>
</filter>
<linearGradient id="paint0_linear_4330_247" x1="25.3662" y1="-17.7404" x2="112.68" y2="274.724" gradientUnits="userSpaceOnUse">
<stop stop-color="#0283AB"/>
<stop offset="1" stop-color="#0283AB" stop-opacity="0"/>
</linearGradient>
<linearGradient id="paint1_linear_4330_247" x1="-103.5" y1="50.0298" x2="412.351" y2="322.401" gradientUnits="userSpaceOnUse">
<stop stop-color="#00A5F0"/>
<stop offset="1" stop-color="#00D7D7"/>
</linearGradient>
<linearGradient id="paint2_linear_4330_247" x1="179.254" y1="286.751" x2="58.5344" y2="162.014" gradientUnits="userSpaceOnUse">
<stop stop-color="white"/>
<stop offset="1" stop-color="white" stop-opacity="0"/>
</linearGradient>
<linearGradient id="paint3_linear_4330_247" x1="314.516" y1="-115.779" x2="401.756" y2="95.721" gradientUnits="userSpaceOnUse">
<stop stop-color="white"/>
<stop offset="1" stop-color="white" stop-opacity="0"/>
</linearGradient>
<linearGradient id="paint4_linear_4330_247" x1="101.301" y1="96.7621" x2="117.462" y2="143.526" gradientUnits="userSpaceOnUse">
<stop stop-color="#DCD59E"/>
<stop offset="1" stop-color="#CBBB82"/>
</linearGradient>
<linearGradient id="paint5_linear_4330_247" x1="80.9688" y1="98.6911" x2="101.301" y2="130.649" gradientUnits="userSpaceOnUse">
<stop stop-color="#FBF3C0"/>
<stop offset="1" stop-color="#CCBC84"/>
</linearGradient>
<clipPath id="clip0_4330_247">
<rect x="40.8652" y="7.09583" width="341.746" height="218.493" rx="6.72287" fill="white"/>
</clipPath>
</defs>
</svg>
